<?xml version="1.0" encoding="UTF-8"?>
<svg id="Layer_1" data-name="Layer 1" xmlns="http://www.w3.org/2000/svg" viewBox="0 0 318.73 119.24">
  <defs>
    <style>
      .cls-1 {
        fill: none;
      }

      .cls-2 {
        fill: #737373;
      }

      .cls-3 {
        fill: #f25022;
      }

      .cls-4 {
        fill: #ffb900;
      }

      .cls-5 {
        fill: #7fba00;
      }

      .cls-6 {
        fill: #00a4ef;
      }
    </style>
  </defs>
  <rect class="cls-1" width="318.73" height="119.24"/>
  <g>
    <path class="cls-2" d="M137.44,42.94v33.35h-5.79v-26.17h-.08l-10.35,26.17h-3.86l-10.58-26.17h-.08v26.17h-5.33v-33.35h8.34l9.57,24.71h.15l10.11-24.71h7.88ZM142.22,45.49c0-.93.31-1.7,1-2.32.69-.62,1.47-.93,2.39-.93,1,0,1.85.31,2.47.93s1,1.39,1,2.32-.31,1.7-1,2.32c-.69.62-1.47.93-2.47.93s-1.78-.31-2.39-.93c-.62-.69-1-1.47-1-2.32ZM148.48,52.36v23.93h-5.64v-23.93h5.64ZM165.54,72.2c.85,0,1.78-.15,2.78-.62,1-.39,1.93-.93,2.78-1.54v5.25c-.93.54-1.93.93-3.09,1.16s-2.39.39-3.78.39c-3.55,0-6.41-1.08-8.57-3.32-2.24-2.24-3.32-5.1-3.32-8.49,0-3.86,1.16-7.03,3.4-9.5s5.4-3.71,9.57-3.71c1.08,0,2.16.15,3.17.39,1.08.23,1.93.62,2.55.93v5.4c-.85-.62-1.78-1.16-2.63-1.47-.93-.31-1.85-.54-2.78-.54-2.24,0-4.01.69-5.4,2.16-1.39,1.47-2.01,3.4-2.01,5.87s.69,4.32,2.01,5.64c1.31,1.31,3.09,2.01,5.33,2.01h0ZM187.08,51.97c.46,0,.85,0,1.24.08s.69.15.93.23v5.71c-.31-.23-.69-.46-1.31-.62s-1.24-.31-2.08-.31c-1.39,0-2.55.62-3.47,1.78s-1.47,2.93-1.47,5.4v12.04h-5.64v-23.93h5.64v3.78h.08c.54-1.31,1.31-2.32,2.32-3.09,1.08-.69,2.32-1.08,3.78-1.08h0ZM189.55,64.71c0-3.94,1.16-7.1,3.32-9.42,2.24-2.32,5.33-3.47,9.26-3.47,3.71,0,6.64,1.08,8.72,3.32,2.08,2.24,3.17,5.25,3.17,9.03s-1.16,6.95-3.32,9.26c-2.24,2.32-5.25,3.47-9.11,3.47s-6.64-1.08-8.8-3.24c-2.16-2.24-3.24-5.25-3.24-8.96h0ZM195.42,64.48c0,2.47.54,4.4,1.7,5.71s2.78,2.01,4.86,2.01,3.63-.62,4.71-2.01c1.08-1.31,1.62-3.24,1.62-5.87s-.54-4.48-1.62-5.87c-1.08-1.31-2.7-2.01-4.63-2.01-2.08,0-3.63.69-4.79,2.08-1.31,1.47-1.85,3.4-1.85,5.95h0ZM222.44,58.69c0,.77.23,1.47.77,1.93s1.62,1,3.4,1.7c2.24.93,3.86,1.93,4.71,3.01.93,1.16,1.39,2.47,1.39,4.09,0,2.24-.85,4.01-2.63,5.4-1.7,1.39-4.09,2.01-7.03,2.01-1,0-2.08-.15-3.32-.39s-2.24-.54-3.09-.93v-5.56c1,.69,2.16,1.31,3.32,1.7s2.24.62,3.24.62c1.24,0,2.24-.15,2.78-.54.62-.39.93-.93.93-1.78,0-.77-.31-1.39-.93-2.01-.62-.54-1.85-1.16-3.55-1.85-2.08-.85-3.55-1.85-4.4-2.93-.85-1.08-1.31-2.47-1.31-4.17,0-2.16.85-3.94,2.55-5.33s3.94-2.08,6.64-2.08c.85,0,1.78.08,2.78.31,1,.23,1.93.46,2.63.69v5.48c-.77-.46-1.62-.93-2.63-1.31s-2.01-.54-2.93-.54c-1.08,0-1.93.23-2.47.62-.54.54-.85,1.08-.85,1.85ZM235.1,64.71c0-3.94,1.16-7.1,3.32-9.42,2.24-2.32,5.33-3.47,9.26-3.47,3.71,0,6.64,1.08,8.72,3.32,2.08,2.24,3.17,5.25,3.17,9.03s-1.16,6.95-3.32,9.26c-2.24,2.32-5.25,3.47-9.11,3.47s-6.64-1.08-8.8-3.24c-2.08-2.24-3.24-5.25-3.24-8.96ZM240.97,64.48c0,2.47.54,4.4,1.7,5.71s2.78,2.01,4.86,2.01,3.63-.62,4.71-2.01c1.08-1.31,1.62-3.24,1.62-5.87s-.54-4.48-1.62-5.87c-1.08-1.31-2.7-2.01-4.63-2.01-2.08,0-3.63.69-4.79,2.08-1.24,1.47-1.85,3.4-1.85,5.95h0ZM278.34,56.99h-8.42v19.3h-5.71v-19.3h-4.01v-4.63h4.01v-3.32c0-2.47.85-4.56,2.47-6.18s3.71-2.39,6.25-2.39c.69,0,1.31.08,1.85.08s1,.15,1.39.31v4.86c-.15-.08-.54-.23-1-.39-.46-.15-1-.23-1.62-.23-1.16,0-2.08.39-2.7,1.08s-.93,1.85-.93,3.24v2.86h8.42v-5.4l5.64-1.7v7.1h5.71v4.63h-5.71v11.2c0,1.47.31,2.47.77,3.09.54.62,1.39.93,2.55.93.31,0,.69-.08,1.16-.23s.85-.31,1.16-.54v4.63c-.39.23-.93.39-1.78.54-.85.15-1.62.23-2.47.23-2.39,0-4.17-.62-5.33-1.85-1.16-1.24-1.78-3.17-1.78-5.71l.08-12.2Z"/>
    <path class="cls-3" d="M29.04,31.82h26.41v26.41h-26.41v-26.41Z"/>
    <path class="cls-5" d="M58.22,31.82h26.41v26.41h-26.41v-26.41Z"/>
    <path class="cls-6" d="M29.04,61.01h26.41v26.41h-26.41v-26.41Z"/>
    <path class="cls-4" d="M58.22,61.01h26.41v26.41h-26.41v-26.41Z"/>
  </g>
</svg>